# xmcd
#
# Track frame offsets: 
#        150
#        27565
#        73397
#
# Disc length: 2179 seconds
#
# Revision: 0
# Processed by: cddbd v1.5.2PL0 Copyright (c) Steve Scherf et al.
# Submitted via: ExactAudioCopy v1.0b3
#
DISCID=2a088103
DTITLE=ディヴィッド・ルイストン - バリのガムラン３
DYEAR=1900
DGENRE=
TTITLE0=ゴールデン・レイン
TTITLE1=バンブルビー
TTITLE2=ラーマヤナ・モンキーチャント
EXTD=
EXTT0=
EXTT1=
EXTT2=
PLAYORDER=
